Land_normalized_precision_landing07_filtered_grf
version=1
nRows=10
nColumns=37
inDegrees=yes
endheader
time		1_ground_force_vx		1_ground_force_vy		1_ground_force_vz		1_ground_force_px		1_ground_force_py		1_ground_force_pz		1_ground_torque_x		1_ground_torque_y		1_ground_torque_z		2_ground_force_vx		2_ground_force_vy		2_ground_force_vz		2_ground_force_px		2_ground_force_py		2_ground_force_pz		2_ground_torque_x		2_ground_torque_y		2_ground_torque_z		3_ground_force_vx		3_ground_force_vy		3_ground_force_vz		3_ground_force_px		3_ground_force_py		3_ground_force_pz		3_ground_torque_x		3_ground_torque_y		3_ground_torque_z		4_ground_force_vx		4_ground_force_vy		4_ground_force_vz		4_ground_force_px		4_ground_force_py		4_ground_force_pz		4_ground_torque_x		4_ground_torque_y		4_ground_torque_z		
0.994500		13.363058		1038.033132		285.002657		0.050414		0.000000		0.179865		0.378112		29.371470		8.064239		22.481263		885.384664		153.035864		-0.152475		0.000000		0.186406		0.699217		27.537419		4.759753		0.859892		-0.061066		-0.890276		0.381054		1.275708		1.885016		0.014937		-0.006842		0.038547		-1.075514		0.487733		0.112599		-0.351778		1.268374		1.872873		0.008369		0.006720		-0.022476		
0.997152		10.422167		1004.386618		278.742938		0.050328		0.000000		0.179489		0.289748		27.921785		7.748996		29.444625		879.513857		145.820005		-0.152972		0.000000		0.186745		0.929535		27.765038		4.603326		0.806924		-0.071730		-0.787979		0.381060		1.275720		1.884995		0.013283		0.000135		0.041574		-1.122261		0.491662		0.054811		-0.351794		1.268359		1.872870		0.011191		0.007988		-0.021747		
0.999803		6.798218		971.694095		272.058299		0.050333		0.000000		0.178928		0.184682		26.394255		7.389943		34.537571		872.256344		137.620891		-0.153143		0.000000		0.186992		1.089453		27.514648		4.341157		0.738827		-0.132134		-0.674770		0.381073		1.275735		1.884975		0.011018		0.006785		0.043308		-1.118160		0.456924		-0.008162		-0.351801		1.268353		1.872863		0.011594		0.008133		-0.021101		
1.002455		2.654749		939.996913		264.869782		0.050392		0.000000		0.178139		0.070227		24.862930		7.005807		38.050593		863.135120		129.138314		-0.153040		0.000000		0.187051		1.187832		26.944722		4.031353		0.641895		-0.246538		-0.547622		0.381092		1.275750		1.884958		0.008393		0.011663		0.043590		-1.066859		0.393810		-0.075930		-0.351794		1.268357		1.872854		0.009966		0.007349		-0.020727		
1.005106		-1.814509		909.717477		257.269344		0.050539		0.000000		0.177236		-0.046674		23.410263		6.620452		40.591879		852.066409		121.379926		-0.152799		0.000000		0.186879		1.253560		26.313642		3.748480		0.511857		-0.402648		-0.409467		0.381115		1.275764		1.884944		0.005839		0.013644		0.042485		-0.980454		0.316702		-0.147207		-0.351774		1.268369		1.872844		0.007001		0.006030		-0.020679		
1.007758		-6.352220		881.430375		249.672806		0.050838		0.000000		0.176427		-0.159023		22.069985		6.251513		42.737682		839.275068		115.175488		-0.152559		0.000000		0.186485		1.316237		25.847977		3.547169		0.357957		-0.572588		-0.273126		0.381142		1.275775		1.884931		0.003864		0.012276		0.040286		-0.876058		0.241637		-0.216229		-0.351739		1.268387		1.872830		0.003487		0.004626		-0.020856		
1.010409		-10.704261		855.660224		242.690243		0.051323		0.000000		0.175869		-0.260566		20.830084		5.908019		44.773772		825.136510		110.792043		-0.152405		0.000000		0.185919		1.391171		25.637804		3.442414		0.201077		-0.720993		-0.159542		0.381167		1.275781		1.884918		0.002929		0.007835		0.037424		-0.771532		0.181575		-0.272426		-0.351694		1.268409		1.872812		0.000103		0.003449		-0.021035		
1.013061		-14.682144		832.808049		236.799082		0.051971		0.000000		0.175610		-0.347028		19.684914		5.597169		46.630724		810.079143		107.854100		-0.152338		0.000000		0.185267		1.474176		25.609611		3.409668		0.069041		-0.813783		-0.091433		0.381189		1.275783		1.884903		0.003355		0.001204		0.034391		-0.683159		0.142600		-0.303109		-0.351643		1.268430		1.872786		-0.002623		0.002558		-0.020930		
1.015712		-18.178816		813.078244		232.086893		0.052716		0.000000		0.175577		-0.417074		18.655260		5.324994		47.979542		794.531254		105.531026		-0.152296		0.000000		0.184627		1.544177		25.571106		3.396398		-0.010396		-0.827027		-0.084242		0.381206		1.275783		1.884886		0.005239		-0.006302		0.031663		-0.624272		0.123072		-0.298527		-0.351592		1.268450		1.872752		-0.004305		0.001769		-0.020269		
1.018364		-21.141976		796.469051		228.257739		0.053462		0.000000		0.175625		-0.472183		17.788712		5.098012		48.466293		778.855785		102.958817		-0.152190		0.000000		0.184088		1.575644		25.320673		3.347200		-0.018499		-0.753554		-0.138140		0.381216		1.275782		1.884867		0.008401		-0.013269		0.029611		-0.603932		0.116916		-0.256384		-0.351545		1.268463		1.872709		-0.004706		0.000771		-0.018919		
